<?xml version="1.0" encoding="utf-8"?>
<!-- Generator: Adobe Illustrator 26.0.2, SVG Export Plug-In . SVG Version: 6.00 Build 0)  -->
<svg version="1.1" id="Layer_1" xmlns="http://www.w3.org/2000/svg" xmlns:xlink="http://www.w3.org/1999/xlink" x="0px" y="0px"
	 viewBox="0 0 1187.91 1205.85" style="enable-background:new 0 0 1187.91 1205.85;" xml:space="preserve">
<style type="text/css">
	.st0{fill:#FFFFFF;}
</style>
<path class="st0" d="M667.82,858.39c-36.83,0-56.7-18.86-67.03-63.78h-3.93v101.56h-61.53V639.21h61.53v57.49h3.93
	c10.33-44.91,31.55-63.33,68.38-63.33c51.2,0,77.7,41.77,77.7,110.93C746.87,816.17,719.47,858.39,667.82,858.39z M686.24,744.76
	c0-35.48-13.47-56.14-44.46-56.14c-28.3,0-44.91,19.31-44.91,54.35v4.04c0,34.58,16.62,56.14,44.91,56.14
	C672.31,803.15,686.24,781.59,686.24,744.76z M838.14,633.38c36.83-0.45,57.15,18.41,67.48,63.78h3.94v-57.94h61.08V852.1h-61.08
	v-57.49h-4.38c-10.33,44.91-31.55,63.78-67.93,63.78c-51.65,0-78.15-42.22-78.15-111.39C759.09,675.14,786.94,632.93,838.14,633.38z
	 M909.55,748.35v-4.04c0-34.58-17.07-56.14-44.91-56.14c-30.99,0-44.91,22.01-44.91,58.84c0,35.03,13.48,56.14,44.91,56.14
	C892.49,803.15,909.55,783.39,909.55,748.35z M1187.91,813.69V639.21h-61.08v97.31c0,24.7-14.37,39.07-39.07,39.07
	c-25.6,0-35.48-17.07-35.48-39.07v-97.31h-61.53v114.83c0,46.26,19.76,76.8,66.02,76.8c34.13,0,57-17.07,66.88-65.57h3.19v49.32
	c0,24.25-8.98,41.77-44.02,41.77c-34.66,0-63.65-13.22-75.73-20.78l-23.32,48.97c16.02,8.05,54.45,22.11,100.4,22.11
	C1148.39,906.66,1187.91,875.22,1187.91,813.69z M1187.91,1112.88V938.41h-61.08v97.31c0,24.7-14.37,39.07-39.07,39.07
	c-25.6,0-35.48-17.07-35.48-39.07v-97.31h-61.53v114.83c0,46.26,19.76,76.8,66.02,76.8c34.13,0,57-17.07,66.88-65.57h3.19v49.32
	c0,24.25-8.98,41.77-44.02,41.77c-34.66,0-63.65-13.22-75.73-20.78l-23.32,48.97c16.02,8.05,54.45,22.11,100.4,22.11
	C1148.39,1205.85,1187.91,1174.41,1187.91,1112.88z M234.91,1151.3h-61.53V881.77h61.53v116.37h3.48
	c9.88-48.96,32.45-65.57,66.58-65.57c46.26,0,65.57,30.54,65.57,76.35v142.38h-61.08v-124.86c0-22.01-9.88-38.63-35.48-38.63
	c-24.7,0-39.07,14.37-39.07,38.63V1151.3z M385.63,1049.34c0-73.66,40.87-116.77,110.04-116.77c65.57,0,97.46,41.77,97.46,99.71
	c0,9.43,0,16.62-0.9,28.3H446.72c4.04,30.54,20.21,44.02,48.95,44.02c28.3,0,37.73-13.92,42.67-30.54l53,14.82
	c-10.33,38.63-38.18,68.27-96.57,68.27C430.55,1157.14,385.63,1120.31,385.63,1049.34z M447.17,1025.99h89.83
	c-1.8-28.3-15.72-42.67-43.12-42.67C466.93,983.32,451.21,995.9,447.17,1025.99z M607.01,1044.85
	c0-70.96,43.12-112.28,110.49-112.28c66.92,0,110.04,41.32,110.04,112.28c0,70.07-41.77,112.73-110.04,112.73
	C648.78,1157.59,607.01,1114.92,607.01,1044.85z M668.54,1044.4c0,34.58,17.07,57.04,48.51,57.04c31.89,0,49.41-22.46,49.41-57.04
	c0-34.13-17.97-56.14-48.96-56.14C686.06,988.26,668.54,1010.27,668.54,1044.4z M152.01,1150.46c-14.51,4.39-25.35,7.13-47.16,7.13
	c-49.41,0-70.06-32.79-70.06-73.21v-94.77h-24.7v-51.2h24.7v-47.37h61.08v47.37h56.14v51.2H95.86v83.09
	c0,17.07,6.29,25.15,24.7,25.15c9.43,0,20.21-3.14,27.85-4.94L152.01,1150.46z M843.7,1151.3V938.41h61.53v75.9h0.9
	c10.33-64.68,27.85-75.9,57.49-75.9h10.33v70.07h-23.36c-34.58,0-45.36,9.43-45.36,41.32v101.5H843.7z M0,318.76
	c0-103.82,71.8-170.5,192.94-235C303.17,25.06,417.6,0,528.63,0c246.33,0,314.45,137.12,314.45,269.46
	c0,143.48-72.17,255.64-214.84,296.7c-90.79,26.13-204.89,47.08-215.25,134.28c-9.3,78.19-38.96,106.5-78.85,106.5
	C213.21,806.94,0,534.62,0,318.76z M307.33,666.82c20.07,0,22.06-21.05,23.59-49.38c3.95-72.91,20.61-97.26,109.74-140.54
	c76.02-36.92,129.38-97.91,129.38-154.47s-29.49-114.3-112.89-114.3c-57.72,0-114.89,17.01-178.92,47.5
	c-68.7,32.71-109.49,68.96-109.49,125.21C168.74,495.28,267.92,666.82,307.33,666.82z"/>
</svg>
