<?xml version="1.0" encoding="utf-8"?>
<!-- Generator: Adobe Illustrator 26.0.2, SVG Export Plug-In . SVG Version: 6.00 Build 0)  -->
<svg version="1.1" id="Layer_1" xmlns="http://www.w3.org/2000/svg" xmlns:xlink="http://www.w3.org/1999/xlink" x="0px" y="0px"
	 viewBox="0 0 1920 529.32" style="enable-background:new 0 0 1920 529.32;" xml:space="preserve">
<style type="text/css">
	.st0{fill:#FFFFFF;}
</style>
<path class="st0" d="M1705.74,261.88v70.06h-23.35c-34.58,0-45.36,9.43-45.36,41.32v101.5h-61.53V320.52
	c10.42,5.78,21.55,9.94,32.95,9.94c13.78,0,22.3-5.57,27.41-10.36v17.68h4.38C1650.14,283.95,1670.46,261.88,1705.74,261.88z
	 M132.5,481.05c-36.83,0-56.7-18.86-67.03-63.78h-3.93v101.56H0V261.87h61.53v57.49h3.93c10.33-44.91,31.55-63.33,68.38-63.33
	c51.2,0,77.7,41.77,77.7,110.93C211.54,438.83,184.15,481.05,132.5,481.05z M150.91,367.42c0-35.48-13.47-56.14-44.46-56.14
	c-28.3,0-44.91,19.31-44.91,54.35v4.04c0,34.58,16.62,56.14,44.91,56.14C136.99,425.81,150.91,404.25,150.91,367.42z M302.82,256.04
	c36.83-0.45,57.15,18.41,67.48,63.78h3.94v-57.94h61.08v212.89h-61.08v-57.49h-4.38c-10.33,44.91-31.55,63.78-67.93,63.78
	c-51.65,0-78.15-42.22-78.15-111.39C223.77,297.81,251.61,255.59,302.82,256.04z M374.23,371.02v-4.04
	c0-34.58-17.07-56.14-44.91-56.14c-30.99,0-44.91,22.01-44.91,58.84c0,35.03,13.48,56.14,44.91,56.14
	C357.16,425.81,374.23,406.05,374.23,371.02z M652.59,436.35V261.87H591.5v97.31c0,24.7-14.37,39.07-39.07,39.07
	c-25.6,0-35.48-17.07-35.48-39.07v-97.31h-61.53V376.7c0,46.26,19.76,76.8,66.02,76.8c34.13,0,57-17.07,66.88-65.57h3.19v49.32
	c0,24.25-8.98,41.77-44.02,41.77c-34.66,0-63.65-13.22-75.73-20.78l-23.32,48.97c16.02,8.05,54.45,22.11,100.4,22.11
	C613.06,529.32,652.59,497.88,652.59,436.35z M1920,436.35V261.87h-61.08v97.31c0,24.7-14.37,39.07-39.07,39.07
	c-25.6,0-35.48-17.07-35.48-39.07v-97.31h-61.53V376.7c0,46.26,19.76,76.8,66.02,76.8c34.13,0,57-17.07,66.88-65.57h3.19v49.32
	c0,24.25-8.98,41.77-44.02,41.77c-34.66,0-63.65-13.22-75.73-20.78l-23.32,48.97c16.02,8.05,54.45,22.11,100.4,22.11
	C1880.48,529.32,1920,497.88,1920,436.35z M966.99,474.76h-61.53V205.24h61.53v116.37h3.48c9.88-48.96,32.45-65.57,66.58-65.57
	c46.26,0,65.57,30.54,65.57,76.35v142.38h-61.08V349.91c0-22.01-9.88-38.63-35.48-38.63c-24.7,0-39.07,14.37-39.07,38.63V474.76z
	 M1117.72,372.81c0-73.66,40.87-116.77,110.04-116.77c65.57,0,97.46,41.77,97.46,99.71c0,9.43,0,16.62-0.9,28.3h-145.52
	c4.04,30.54,20.21,44.02,48.95,44.02c28.3,0,37.73-13.92,42.67-30.54l53,14.82c-10.33,38.63-38.18,68.27-96.57,68.27
	C1162.64,480.6,1117.72,443.77,1117.72,372.81z M1179.25,349.46h89.83c-1.8-28.3-15.72-42.67-43.12-42.67
	C1199.02,306.79,1183.29,319.36,1179.25,349.46z M1339.1,368.32c0-70.96,43.12-112.28,110.49-112.28
	c66.92,0,110.04,41.32,110.04,112.28c0,70.07-41.77,112.73-110.04,112.73C1380.87,481.05,1339.1,438.39,1339.1,368.32z
	 M1400.63,367.87c0,34.58,17.07,57.04,48.51,57.04c31.89,0,49.41-22.46,49.41-57.04c0-34.13-17.97-56.14-48.96-56.14
	C1418.15,311.73,1400.63,333.74,1400.63,367.87z M884.09,473.92c-14.51,4.39-25.35,7.13-47.16,7.13
	c-49.41,0-70.06-32.79-70.06-73.21v-94.77h-24.7v-51.2h24.7V214.5h61.08v47.37h56.14v51.2h-56.14v83.09
	c0,17.07,6.29,25.15,24.7,25.15c9.43,0,20.21-3.14,27.85-4.94L884.09,473.92z M1477.76,124.68c0-40.61,28.08-66.69,75.46-91.92
	C1596.34,9.8,1641.1,0,1684.52,0c96.35,0,122.99,53.63,122.99,105.39c0,56.12-28.23,99.99-84.03,116.05
	c-35.51,10.22-80.14,18.42-84.19,52.52c-3.64,30.58-15.24,41.66-30.84,41.66C1561.15,315.62,1477.76,209.11,1477.76,124.68z
	 M1597.97,260.81c7.85,0,8.63-8.23,9.23-19.32c1.55-28.52,8.06-38.04,42.92-54.97c29.74-14.44,50.61-38.3,50.61-60.42
	s-11.53-44.71-44.16-44.71c-22.57,0-44.94,6.65-69.98,18.58c-26.87,12.79-42.82,26.97-42.82,48.98
	C1543.76,193.72,1582.55,260.81,1597.97,260.81z"/>
</svg>
