<?xml version="1.0" encoding="utf-8"?>
<!-- Generator: Adobe Illustrator 26.0.2, SVG Export Plug-In . SVG Version: 6.00 Build 0)  -->
<svg version="1.1" id="Layer_1" xmlns="http://www.w3.org/2000/svg" xmlns:xlink="http://www.w3.org/1999/xlink" x="0px" y="0px"
	 viewBox="0 0 843.07 806.94" style="enable-background:new 0 0 843.07 806.94;" xml:space="preserve">
<style type="text/css">
	.st0{fill:#FFFFFF;}
</style>
<path class="st0" d="M0,318.76c0-103.82,71.8-170.5,192.94-235C303.17,25.06,417.6,0,528.63,0c246.33,0,314.45,137.12,314.45,269.46
	c0,143.48-72.17,255.64-214.84,296.7c-90.79,26.13-204.89,47.08-215.25,134.28c-9.3,78.19-38.96,106.5-78.85,106.5
	C213.21,806.94,0,534.62,0,318.76z M307.33,666.82c20.07,0,22.06-21.05,23.59-49.38c3.95-72.91,20.61-97.26,109.74-140.54
	c76.02-36.92,129.38-97.91,129.38-154.47s-29.49-114.3-112.89-114.3c-57.72,0-114.89,17.01-178.92,47.5
	c-68.7,32.71-109.49,68.96-109.49,125.21C168.74,495.28,267.92,666.82,307.33,666.82z"/>
</svg>
