<?xml version="1.0" encoding="utf-8"?>
<!-- Generator: Adobe Illustrator 27.5.0, SVG Export Plug-In . SVG Version: 6.00 Build 0)  -->
<svg version="1.1" id="Layer_1" xmlns="http://www.w3.org/2000/svg" xmlns:xlink="http://www.w3.org/1999/xlink" x="0px" y="0px"
	 viewBox="0 0 843.1 806.9" style="enable-background:new 0 0 843.1 806.9;" xml:space="preserve">
<style type="text/css">
	.st0{fill:#1B1B1B;}
</style>
<path class="st0" d="M0,318.8c0-103.8,71.8-170.5,192.9-235C303.2,25.1,417.6,0,528.6,0C775,0,843.1,137.1,843.1,269.5
	c0,143.5-72.2,255.6-214.8,296.7c-90.8,26.1-204.9,47.1-215.2,134.3c-9.3,78.2-39,106.5-78.9,106.5C213.2,806.9,0,534.6,0,318.8z
	 M307.3,666.8c20.1,0,22.1-21,23.6-49.4c4-72.9,20.6-97.3,109.7-140.5C516.7,440,570,379,570,322.4s-29.5-114.3-112.9-114.3
	c-57.7,0-114.9,17-178.9,47.5c-68.7,32.7-109.5,69-109.5,125.2C168.7,495.3,267.9,666.8,307.3,666.8z"/>
</svg>
