<?xml version="1.0" encoding="utf-8"?>
<!-- Generator: Adobe Illustrator 27.5.0, SVG Export Plug-In . SVG Version: 6.00 Build 0)  -->
<svg version="1.1" id="Layer_1" xmlns="http://www.w3.org/2000/svg" xmlns:xlink="http://www.w3.org/1999/xlink" x="0px" y="0px"
	 viewBox="0 0 1187.9 1205.8" style="enable-background:new 0 0 1187.9 1205.8;" xml:space="preserve">
<style type="text/css">
	.st0{fill:#1B1B1B;}
</style>
<path class="st0" d="M667.8,858.4c-36.8,0-56.7-18.9-67-63.8h-3.9v101.6h-61.5v-257h61.5v57.5h3.9c10.3-44.9,31.5-63.3,68.4-63.3
	c51.2,0,77.7,41.8,77.7,110.9C746.9,816.2,719.5,858.4,667.8,858.4z M686.2,744.8c0-35.5-13.5-56.1-44.5-56.1
	c-28.3,0-44.9,19.3-44.9,54.3v4c0,34.6,16.6,56.1,44.9,56.1C672.3,803.2,686.2,781.6,686.2,744.8z M838.1,633.4
	c36.8-0.5,57.2,18.4,67.5,63.8h3.9v-57.9h61.1v212.9h-61.1v-57.5h-4.4c-10.3,44.9-31.5,63.8-67.9,63.8c-51.7,0-78.2-42.2-78.2-111.4
	C759.1,675.1,786.9,632.9,838.1,633.4z M909.5,748.3v-4c0-34.6-17.1-56.1-44.9-56.1c-31,0-44.9,22-44.9,58.8
	c0,35,13.5,56.1,44.9,56.1C892.5,803.2,909.5,783.4,909.5,748.3z M1187.9,813.7V639.2h-61.1v97.3c0,24.7-14.4,39.1-39.1,39.1
	c-25.6,0-35.5-17.1-35.5-39.1v-97.3h-61.5V754c0,46.3,19.8,76.8,66,76.8c34.1,0,57-17.1,66.9-65.6h3.2v49.3c0,24.2-9,41.8-44,41.8
	c-34.7,0-63.7-13.2-75.7-20.8l-23.3,49c16,8,54.5,22.1,100.4,22.1C1148.4,906.7,1187.9,875.2,1187.9,813.7z M1187.9,1112.9V938.4
	h-61.1v97.3c0,24.7-14.4,39.1-39.1,39.1c-25.6,0-35.5-17.1-35.5-39.1v-97.3h-61.5v114.8c0,46.3,19.8,76.8,66,76.8
	c34.1,0,57-17.1,66.9-65.6h3.2v49.3c0,24.2-9,41.8-44,41.8c-34.7,0-63.7-13.2-75.7-20.8l-23.3,49c16,8.1,54.5,22.1,100.4,22.1
	C1148.4,1205.8,1187.9,1174.4,1187.9,1112.9z M234.9,1151.3h-61.5V881.8h61.5v116.4h3.5c9.9-49,32.4-65.6,66.6-65.6
	c46.3,0,65.6,30.5,65.6,76.3v142.4h-61.1v-124.9c0-22-9.9-38.6-35.5-38.6c-24.7,0-39.1,14.4-39.1,38.6V1151.3z M385.6,1049.3
	c0-73.7,40.9-116.8,110-116.8c65.6,0,97.5,41.8,97.5,99.7c0,9.4,0,16.6-0.9,28.3H446.7c4,30.5,20.2,44,49,44
	c28.3,0,37.7-13.9,42.7-30.5l53,14.8c-10.3,38.6-38.2,68.3-96.6,68.3C430.5,1157.1,385.6,1120.3,385.6,1049.3z M447.2,1026H537
	c-1.8-28.3-15.7-42.7-43.1-42.7C466.9,983.3,451.2,995.9,447.2,1026z M607,1044.8c0-71,43.1-112.3,110.5-112.3
	c66.9,0,110,41.3,110,112.3c0,70.1-41.8,112.7-110,112.7C648.8,1157.6,607,1114.9,607,1044.8z M668.5,1044.4c0,34.6,17.1,57,48.5,57
	c31.9,0,49.4-22.5,49.4-57c0-34.1-18-56.1-49-56.1C686.1,988.3,668.5,1010.3,668.5,1044.4z M152,1150.5c-14.5,4.4-25.3,7.1-47.2,7.1
	c-49.4,0-70.1-32.8-70.1-73.2v-94.8H10.1v-51.2h24.7V891h61.1v47.4H152v51.2H95.9v83.1c0,17.1,6.3,25.2,24.7,25.2
	c9.4,0,20.2-3.1,27.9-4.9L152,1150.5z M843.7,1151.3V938.4h61.5v75.9h0.9c10.3-64.7,27.8-75.9,57.5-75.9H974v70.1h-23.4
	c-34.6,0-45.4,9.4-45.4,41.3v101.5L843.7,1151.3L843.7,1151.3z M0,318.8c0-103.8,71.8-170.5,192.9-235C303.2,25.1,417.6,0,528.6,0
	C775,0,843.1,137.1,843.1,269.5c0,143.5-72.2,255.6-214.8,296.7c-90.8,26.1-204.9,47.1-215.2,134.3c-9.3,78.2-39,106.5-78.9,106.5
	C213.2,806.9,0,534.6,0,318.8z M307.3,666.8c20.1,0,22.1-21,23.6-49.4c4-72.9,20.6-97.3,109.7-140.5C516.7,440,570,379,570,322.4
	s-29.5-114.3-112.9-114.3c-57.7,0-114.9,17-178.9,47.5c-68.7,32.7-109.5,69-109.5,125.2C168.7,495.3,267.9,666.8,307.3,666.8z"/>
</svg>
