<?xml version="1.0" encoding="utf-8"?>
<!-- Generator: Adobe Illustrator 27.5.0, SVG Export Plug-In . SVG Version: 6.00 Build 0)  -->
<svg version="1.1" id="Layer_1" xmlns="http://www.w3.org/2000/svg" xmlns:xlink="http://www.w3.org/1999/xlink" x="0px" y="0px"
	 viewBox="0 0 1920 529.3" style="enable-background:new 0 0 1920 529.3;" xml:space="preserve">
<style type="text/css">
	.st0{fill:#600075;}
</style>
<path class="st0" d="M1705.7,261.9v70.1h-23.3c-34.6,0-45.4,9.4-45.4,41.3v101.5h-61.5V320.5c10.4,5.8,21.6,9.9,32.9,9.9
	c13.8,0,22.3-5.6,27.4-10.4v17.7h4.4C1650.1,284,1670.5,261.9,1705.7,261.9z M132.5,481c-36.8,0-56.7-18.9-67-63.8h-3.9v101.6H0
	v-257h61.5v57.5h3.9C75.8,274.4,97,256,133.8,256c51.2,0,77.7,41.8,77.7,110.9C211.5,438.8,184.1,481,132.5,481z M150.9,367.4
	c0-35.5-13.5-56.1-44.5-56.1c-28.3,0-44.9,19.3-44.9,54.4v4c0,34.6,16.6,56.1,44.9,56.1C137,425.8,150.9,404.2,150.9,367.4z
	 M302.8,256c36.8-0.4,57.1,18.4,67.5,63.8h3.9v-57.9h61.1v212.9h-61.1v-57.5h-4.4c-10.3,44.9-31.5,63.8-67.9,63.8
	c-51.6,0-78.1-42.2-78.1-111.4C223.8,297.8,251.6,255.6,302.8,256z M374.2,371v-4c0-34.6-17.1-56.1-44.9-56.1
	c-31,0-44.9,22-44.9,58.8c0,35,13.5,56.1,44.9,56.1C357.2,425.8,374.2,406,374.2,371z M652.6,436.4V261.9h-61.1v97.3
	c0,24.7-14.4,39.1-39.1,39.1c-25.6,0-35.5-17.1-35.5-39.1v-97.3h-61.5v114.8c0,46.3,19.8,76.8,66,76.8c34.1,0,57-17.1,66.9-65.6h3.2
	v49.3c0,24.2-9,41.8-44,41.8c-34.7,0-63.6-13.2-75.7-20.8l-23.3,49c16,8.1,54.5,22.1,100.4,22.1
	C613.1,529.3,652.6,497.9,652.6,436.4z M1920,436.4V261.9h-61.1v97.3c0,24.7-14.4,39.1-39.1,39.1c-25.6,0-35.5-17.1-35.5-39.1v-97.3
	h-61.5v114.8c0,46.3,19.8,76.8,66,76.8c34.1,0,57-17.1,66.9-65.6h3.2v49.3c0,24.2-9,41.8-44,41.8c-34.7,0-63.7-13.2-75.7-20.8
	l-23.3,49c16,8.1,54.4,22.1,100.4,22.1C1880.5,529.3,1920,497.9,1920,436.4z M967,474.8h-61.5V205.2H967v116.4h3.5
	c9.9-49,32.5-65.6,66.6-65.6c46.3,0,65.6,30.5,65.6,76.4v142.4h-61.1V349.9c0-22-9.9-38.6-35.5-38.6c-24.7,0-39.1,14.4-39.1,38.6
	L967,474.8L967,474.8z M1117.7,372.8c0-73.7,40.9-116.8,110-116.8c65.6,0,97.5,41.8,97.5,99.7c0,9.4,0,16.6-0.9,28.3h-145.5
	c4,30.5,20.2,44,48.9,44c28.3,0,37.7-13.9,42.7-30.5l53,14.8c-10.3,38.6-38.2,68.3-96.6,68.3
	C1162.6,480.6,1117.7,443.8,1117.7,372.8z M1179.2,349.5h89.8c-1.8-28.3-15.7-42.7-43.1-42.7C1199,306.8,1183.3,319.4,1179.2,349.5z
	 M1339.1,368.3c0-71,43.1-112.3,110.5-112.3c66.9,0,110,41.3,110,112.3c0,70.1-41.8,112.7-110,112.7
	C1380.9,481,1339.1,438.4,1339.1,368.3z M1400.6,367.9c0,34.6,17.1,57,48.5,57c31.9,0,49.4-22.5,49.4-57c0-34.1-18-56.1-49-56.1
	C1418.2,311.7,1400.6,333.7,1400.6,367.9z M884.1,473.9c-14.5,4.4-25.3,7.1-47.2,7.1c-49.4,0-70.1-32.8-70.1-73.2v-94.8h-24.7v-51.2
	h24.7v-47.4H828v47.4h56.1v51.2H828v83.1c0,17.1,6.3,25.1,24.7,25.1c9.4,0,20.2-3.1,27.8-4.9L884.1,473.9z M1477.8,124.7
	c0-40.6,28.1-66.7,75.5-91.9c43.1-23,87.9-32.8,131.3-32.8c96.3,0,123,53.6,123,105.4c0,56.1-28.2,100-84,116.1
	c-35.5,10.2-80.1,18.4-84.2,52.5c-3.6,30.6-15.2,41.7-30.8,41.7C1561.2,315.6,1477.8,209.1,1477.8,124.7z M1598,260.8
	c7.8,0,8.6-8.2,9.2-19.3c1.6-28.5,8.1-38,42.9-55c29.7-14.4,50.6-38.3,50.6-60.4s-11.5-44.7-44.2-44.7c-22.6,0-44.9,6.7-70,18.6
	c-26.9,12.8-42.8,27-42.8,49C1543.8,193.7,1582.6,260.8,1598,260.8z"/>
</svg>
